<svg xmlns="http://www.w3.org/2000/svg" xmlns:xlink="http://www.w3.org/1999/xlink" contentStyleType="text/css" data-diagram-type="DESCRIPTION" height="417px" preserveAspectRatio="none" style="width:834px;height:417px;background:#FFFFFF;" version="1.1" viewBox="0 0 834 417" width="834px" zoomAndPan="magnify"><defs/><g><!--entity express--><g class="entity" data-entity="express" data-source-line="7" data-uid="ent0002" id="entity_express"><path d="M8.5,179 L83.1123,179 A3.75,3.75 0 0 1 85.6123,181.5 L92.6123,201.2969 L107.1123,201.2969 A2.5,2.5 0 0 1 109.6123,203.7969 L109.6123,248.3906 A2.5,2.5 0 0 1 107.1123,250.8906 L8.5,250.8906 A2.5,2.5 0 0 1 6,248.3906 L6,181.5 A2.5,2.5 0 0 1 8.5,179" fill="#F1F1F1" style="stroke:#181818;stroke-width:0.5;"/><line style="stroke:#181818;stroke-width:0.5;" x1="6" x2="92.6123" y1="201.2969" y2="201.2969"/><text fill="#000000" font-family="Arial" font-size="14" font-weight="bold" lengthAdjust="spacing" textLength="61.6123" x="16" y="194.9951">express</text><text fill="#000000" font-family="Arial" font-size="14" lengthAdjust="spacing" textLength="54.7422" x="16" y="221.292">express</text><text fill="#000000" font-family="Arial" font-size="14" lengthAdjust="spacing" textLength="44.5293" x="21.1064" y="237.5889">4.18.0</text></g><!--entity accepts--><g class="entity" data-entity="accepts" data-source-line="8" data-uid="ent0003" id="entity_accepts"><path d="M239.83,72 L313.4169,72 A3.75,3.75 0 0 1 315.9169,74.5 L322.9169,94.2969 L337.4169,94.2969 A2.5,2.5 0 0 1 339.9169,96.7969 L339.9169,141.3906 A2.5,2.5 0 0 1 337.4169,143.8906 L239.83,143.8906 A2.5,2.5 0 0 1 237.33,141.3906 L237.33,74.5 A2.5,2.5 0 0 1 239.83,72" fill="#F1F1F1" style="stroke:#181818;stroke-width:0.5;"/><line style="stroke:#181818;stroke-width:0.5;" x1="237.33" x2="322.9169" y1="94.2969" y2="94.2969"/><text fill="#000000" font-family="Arial" font-size="14" font-weight="bold" lengthAdjust="spacing" textLength="60.5869" x="247.33" y="87.9951">accepts</text><text fill="#000000" font-family="Arial" font-size="14" lengthAdjust="spacing" textLength="54.2568" x="247.33" y="114.292">accepts</text><text fill="#000000" font-family="Arial" font-size="14" lengthAdjust="spacing" textLength="35.6221" x="256.6474" y="130.5889">1.3.8</text></g><!--entity mime_types--><g class="entity" data-entity="mime_types" data-source-line="9" data-uid="ent0004" id="entity_mime_types"><path d="M478.12,6 L585.2577,6 A3.75,3.75 0 0 1 587.7577,8.5 L594.7577,28.2969 L609.2577,28.2969 A2.5,2.5 0 0 1 611.7577,30.7969 L611.7577,75.3906 A2.5,2.5 0 0 1 609.2577,77.8906 L478.12,77.8906 A2.5,2.5 0 0 1 475.62,75.3906 L475.62,8.5 A2.5,2.5 0 0 1 478.12,6" fill="#F1F1F1" style="stroke:#181818;stroke-width:0.5;"/><line style="stroke:#181818;stroke-width:0.5;" x1="475.62" x2="594.7577" y1="28.2969" y2="28.2969"/><text fill="#000000" font-family="Arial" font-size="14" font-weight="bold" lengthAdjust="spacing" textLength="94.1377" x="485.62" y="21.9951">mime_types</text><text fill="#000000" font-family="Arial" font-size="14" lengthAdjust="spacing" textLength="83.3984" x="485.62" y="48.292">mime-types</text><text fill="#000000" font-family="Arial" font-size="14" lengthAdjust="spacing" textLength="44.5293" x="505.0546" y="64.5889">2.1.35</text></g><!--entity mime_db--><g class="entity" data-entity="mime_db" data-source-line="10" data-uid="ent0005" id="entity_mime_db"><path d="M717.26,6 L800.7727,6 A3.75,3.75 0 0 1 803.2727,8.5 L810.2727,28.2969 L824.7727,28.2969 A2.5,2.5 0 0 1 827.2727,30.7969 L827.2727,75.3906 A2.5,2.5 0 0 1 824.7727,77.8906 L717.26,77.8906 A2.5,2.5 0 0 1 714.76,75.3906 L714.76,8.5 A2.5,2.5 0 0 1 717.26,6" fill="#F1F1F1" style="stroke:#181818;stroke-width:0.5;"/><line style="stroke:#181818;stroke-width:0.5;" x1="714.76" x2="810.2727" y1="28.2969" y2="28.2969"/><text fill="#000000" font-family="Arial" font-size="14" font-weight="bold" lengthAdjust="spacing" textLength="70.5127" x="724.76" y="21.9951">mime_db</text><text fill="#000000" font-family="Arial" font-size="14" lengthAdjust="spacing" textLength="62.6035" x="724.76" y="48.292">mime-db</text><text fill="#000000" font-family="Arial" font-size="14" lengthAdjust="spacing" textLength="44.5293" x="733.7971" y="64.5889">1.52.0</text></g><!--entity negotiator--><g class="entity" data-entity="negotiator" data-source-line="11" data-uid="ent0006" id="entity_negotiator"><path d="M483.57,113 L579.8249,113 A3.75,3.75 0 0 1 582.3249,115.5 L589.3249,135.2969 L603.8249,135.2969 A2.5,2.5 0 0 1 606.3249,137.7969 L606.3249,182.3906 A2.5,2.5 0 0 1 603.8249,184.8906 L483.57,184.8906 A2.5,2.5 0 0 1 481.07,182.3906 L481.07,115.5 A2.5,2.5 0 0 1 483.57,113" fill="#F1F1F1" style="stroke:#181818;stroke-width:0.5;"/><line style="stroke:#181818;stroke-width:0.5;" x1="481.07" x2="589.3249" y1="135.2969" y2="135.2969"/><text fill="#000000" font-family="Arial" font-size="14" font-weight="bold" lengthAdjust="spacing" textLength="83.2549" x="491.07" y="128.9951">negotiator</text><text fill="#000000" font-family="Arial" font-size="14" lengthAdjust="spacing" textLength="72.707" x="491.07" y="155.292">negotiator</text><text fill="#000000" font-family="Arial" font-size="14" lengthAdjust="spacing" textLength="63.6152" x="495.6159" y="171.5889">unknown</text></g><!--entity array_flatten--><g class="entity" data-entity="array_flatten" data-source-line="12" data-uid="ent0007" id="entity_array_flatten"><path d="M219.11,179 L334.1227,179 A3.75,3.75 0 0 1 336.6227,181.5 L343.6227,201.2969 L358.1227,201.2969 A2.5,2.5 0 0 1 360.6227,203.7969 L360.6227,248.3906 A2.5,2.5 0 0 1 358.1227,250.8906 L219.11,250.8906 A2.5,2.5 0 0 1 216.61,248.3906 L216.61,181.5 A2.5,2.5 0 0 1 219.11,179" fill="#F1F1F1" style="stroke:#181818;stroke-width:0.5;"/><line style="stroke:#181818;stroke-width:0.5;" x1="216.61" x2="343.6227" y1="201.2969" y2="201.2969"/><text fill="#000000" font-family="Arial" font-size="14" font-weight="bold" lengthAdjust="spacing" textLength="102.0127" x="226.61" y="194.9951">array_flatten</text><text fill="#000000" font-family="Arial" font-size="14" lengthAdjust="spacing" textLength="87.8691" x="226.61" y="221.292">array-flatten</text><text fill="#000000" font-family="Arial" font-size="14" lengthAdjust="spacing" textLength="63.6152" x="238.737" y="237.5889">unknown</text></g><!--entity body_parser--><g class="entity" data-entity="body_parser" data-source-line="13" data-uid="ent0008" id="entity_body_parser"><path d="M221.67,286 L331.5626,286 A3.75,3.75 0 0 1 334.0626,288.5 L341.0626,308.2969 L355.5626,308.2969 A2.5,2.5 0 0 1 358.0626,310.7969 L358.0626,355.3906 A2.5,2.5 0 0 1 355.5626,357.8906 L221.67,357.8906 A2.5,2.5 0 0 1 219.17,355.3906 L219.17,288.5 A2.5,2.5 0 0 1 221.67,286" fill="#F1F1F1" style="stroke:#181818;stroke-width:0.5;"/><line style="stroke:#181818;stroke-width:0.5;" x1="219.17" x2="341.0626" y1="308.2969" y2="308.2969"/><text fill="#000000" font-family="Arial" font-size="14" font-weight="bold" lengthAdjust="spacing" textLength="96.8926" x="229.17" y="301.9951">body_parser</text><text fill="#000000" font-family="Arial" font-size="14" lengthAdjust="spacing" textLength="84.5605" x="229.17" y="328.292">body-parser</text><text fill="#000000" font-family="Arial" font-size="14" lengthAdjust="spacing" textLength="44.5293" x="249.1856" y="344.5889">1.20.0</text></g><!--entity bytes--><g class="entity" data-entity="bytes" data-source-line="14" data-uid="ent0009" id="entity_bytes"><path d="M499.39,232 L556.058,232 A3.75,3.75 0 0 1 558.558,234.5 L565.558,254.2969 L588.0052,254.2969 A2.5,2.5 0 0 1 590.5052,256.7969 L590.5052,301.3906 A2.5,2.5 0 0 1 588.0052,303.8906 L499.39,303.8906 A2.5,2.5 0 0 1 496.89,301.3906 L496.89,234.5 A2.5,2.5 0 0 1 499.39,232" fill="#F1F1F1" style="stroke:#181818;stroke-width:0.5;"/><line style="stroke:#181818;stroke-width:0.5;" x1="496.89" x2="565.558" y1="254.2969" y2="254.2969"/><text fill="#000000" font-family="Arial" font-size="14" font-weight="bold" lengthAdjust="spacing" textLength="43.668" x="506.89" y="247.9951">bytes</text><text fill="#000000" font-family="Arial" font-size="14" lengthAdjust="spacing" textLength="38.5684" x="519.4134" y="274.292">bytes</text><text fill="#000000" font-family="Arial" font-size="14" lengthAdjust="spacing" textLength="63.6152" x="506.89" y="290.5889">unknown</text></g><!--entity http_errors--><g class="entity" data-entity="http_errors" data-source-line="15" data-uid="ent0010" id="entity_http_errors"><path d="M480.93,339 L582.4622,339 A3.75,3.75 0 0 1 584.9622,341.5 L591.9622,361.2969 L606.4622,361.2969 A2.5,2.5 0 0 1 608.9622,363.7969 L608.9622,408.3906 A2.5,2.5 0 0 1 606.4622,410.8906 L480.93,410.8906 A2.5,2.5 0 0 1 478.43,408.3906 L478.43,341.5 A2.5,2.5 0 0 1 480.93,339" fill="#F1F1F1" style="stroke:#181818;stroke-width:0.5;"/><line style="stroke:#181818;stroke-width:0.5;" x1="478.43" x2="591.9622" y1="361.2969" y2="361.2969"/><text fill="#000000" font-family="Arial" font-size="14" font-weight="bold" lengthAdjust="spacing" textLength="88.5322" x="488.43" y="354.9951">http_errors</text><text fill="#000000" font-family="Arial" font-size="14" lengthAdjust="spacing" textLength="75.5303" x="488.43" y="381.292">http-errors</text><text fill="#000000" font-family="Arial" font-size="14" lengthAdjust="spacing" textLength="63.6152" x="494.3875" y="397.5889">unknown</text></g><!--link express to accepts--><g class="link" data-entity-1="express" data-entity-2="accepts" data-source-line="17" data-uid="lnk11" id="link_express_accepts"><path d="M109.87,213.3569 C147.8,195.6269 193.8646,151.7809 231.6646,134.1109" fill="none" id="express-to-accepts" style="stroke:#181818;stroke-width:1;"/><polygon fill="#181818" points="237.1,131.57,227.2529,131.7577,232.5705,133.6874,230.6407,139.0049,237.1,131.57" style="stroke:#181818;stroke-width:1;"/><polygon fill="none" points="145.61,147.0064,141.61,153.0064,149.61,153.0064" style="stroke:#535353;stroke-width:1;"/><text fill="#000000" font-family="Arial" font-size="13" lengthAdjust="spacing" textLength="33.0776" x="152.61" y="155.0069">1.3.8</text></g><!--link express to array_flatten--><g class="link" data-entity-1="express" data-entity-2="array_flatten" data-source-line="18" data-uid="lnk12" id="link_express_array_flatten"><path d="M109.87,214.94 C141.22,214.94 175.83,214.94 210.32,214.94" fill="none" id="express-to-array_flatten" style="stroke:#181818;stroke-width:1;"/><polygon fill="#181818" points="216.32,214.94,207.32,210.94,211.32,214.94,207.32,218.94,216.32,214.94" style="stroke:#181818;stroke-width:1;"/><text fill="#000000" font-family="Arial" font-size="13" lengthAdjust="spacing" textLength="33.0776" x="146.61" y="211.0069">1.1.1</text></g><!--link express to body_parser--><g class="link" data-entity-1="express" data-entity-2="body_parser" data-source-line="19" data-uid="lnk13" id="link_express_body_parser"><path d="M109.87,238.82 C142.01,253.85 178.4446,270.8991 213.4846,287.2791" fill="none" id="express-to-body_parser" style="stroke:#181818;stroke-width:1;"/><polygon fill="#181818" points="218.92,289.82,212.4608,282.3851,214.3905,287.7026,209.0729,289.6323,218.92,289.82" style="stroke:#181818;stroke-width:1;"/><text fill="#000000" font-family="Arial" font-size="13" lengthAdjust="spacing" textLength="41.3486" x="142.61" y="252.0069">1.20.0</text></g><!--link accepts to mime_types--><g class="link" data-entity-1="accepts" data-entity-2="mime_types" data-source-line="20" data-uid="lnk14" id="link_accepts_mime_types"><path d="M340.22,94.75 C379.03,84.63 427.1343,72.0844 469.5743,61.0144" fill="none" id="accepts-to-mime_types" style="stroke:#181818;stroke-width:1;"/><polygon fill="#181818" points="475.38,59.5,465.6618,57.901,470.5419,60.762,467.681,65.642,475.38,59.5" style="stroke:#181818;stroke-width:1;"/><polygon fill="none" points="396.62,58.0064,392.62,64.0064,400.62,64.0064" style="stroke:#535353;stroke-width:1;"/><text fill="#000000" font-family="Arial" font-size="13" lengthAdjust="spacing" textLength="41.3486" x="403.62" y="66.0069">2.1.34</text></g><!--link accepts to negotiator--><g class="link" data-entity-1="accepts" data-entity-2="negotiator" data-source-line="21" data-uid="lnk15" id="link_accepts_negotiator"><path d="M340.41,117.93 C356.45,120.97 374.26,124.22 390.62,126.94 C420.23,131.87 447.2386,135.8738 474.8786,139.7638" fill="none" id="accepts-to-negotiator" style="stroke:#181818;stroke-width:1;"/><polygon fill="#181818" points="480.82,140.6,472.4653,135.3848,475.8688,139.9032,471.3504,143.3067,480.82,140.6" style="stroke:#181818;stroke-width:1;"/><text fill="#000000" font-family="Arial" font-size="13" lengthAdjust="spacing" textLength="33.0776" x="401.62" y="123.0069">0.6.3</text></g><!--link mime_types to mime_db--><g class="link" data-entity-1="mime_types" data-entity-2="mime_db" data-source-line="22" data-uid="lnk16" id="link_mime_types_mime_db"><path d="M611.99,41.94 C644.67,41.94 677.46,41.94 708.44,41.94" fill="none" id="mime_types-to-mime_db" style="stroke:#181818;stroke-width:1;"/><polygon fill="#181818" points="714.44,41.94,705.44,37.94,709.44,41.94,705.44,45.94,714.44,41.94" style="stroke:#181818;stroke-width:1;"/><text fill="#000000" font-family="Arial" font-size="13" lengthAdjust="spacing" textLength="41.3486" x="642.76" y="38.0069">1.52.0</text></g><!--link body_parser to bytes--><g class="link" data-entity-1="body_parser" data-entity-2="bytes" data-source-line="23" data-uid="lnk17" id="link_body_parser_bytes"><path d="M358.44,329.5569 C402.35,320.1869 452.1918,287.2508 490.8018,279.0208" fill="none" id="body_parser-to-bytes" style="stroke:#181818;stroke-width:1;"/><polygon fill="#181818" points="496.67,277.77,487.0339,275.7342,491.7799,278.8124,488.7016,283.5584,496.67,277.77" style="stroke:#181818;stroke-width:1;"/><text fill="#000000" font-family="Arial" font-size="13" lengthAdjust="spacing" textLength="33.0776" x="401.62" y="287.0069">3.1.2</text></g><!--link body_parser to http_errors--><g class="link" data-entity-1="body_parser" data-entity-2="http_errors" data-source-line="24" data-uid="lnk18" id="link_body_parser_http_errors"><path d="M358.44,336.36 C395.76,344.17 435.7374,352.5503 472.3674,360.2203" fill="none" id="body_parser-to-http_errors" style="stroke:#181818;stroke-width:1;"/><polygon fill="#181818" points="478.24,361.45,470.2508,355.6904,473.3461,360.4253,468.6113,363.5206,478.24,361.45" style="stroke:#181818;stroke-width:1;"/><text fill="#000000" font-family="Arial" font-size="13" lengthAdjust="spacing" textLength="33.0776" x="401.62" y="339.0069">2.0.0</text></g><!--SRC=[PP4nRyCW48LtVWNgRcGxIHLrgDIbOvUkaInipZQA3HPSb7hfRoyG4d2wllVTu-vXpr8jtF2PpbhfRZHw1ehc0iG-73joeQzI3RJdayqT0Js_JFYf5NvnD_XX99yoV-7TcG_mZUi4r427P88UAMfgv30Y5TABKYj28afVu6SnOEr9xLbrPEKBvPP6BK6yws111rLinuw1YL9YPZb3WUi23gkP0m-1yt8Jv2TKj3xkKCSt0oVQ12aOD4gEsfpKHPsLlge09ZtRpnY-5lt44K5jyM0rqKeJhHPhuLgpOFmQTHdNy7fpqpDuHNzL7XkaH8o8Im76QFF4UQEv6OJ4NcbHlD_xes_qDvIwDVEb7LAvFgiDaUqPV7y0kMTw8FNkdmWVijy0gKS7bEoLxKWsyuWGRSZt_qJoHyCIlWHdxrnw_S_DJdUCcsVb7m00]--></g></svg>