<svg xmlns="http://www.w3.org/2000/svg" xmlns:xlink="http://www.w3.org/1999/xlink" contentStyleType="text/css" data-diagram-type="DESCRIPTION" height="376px" preserveAspectRatio="none" style="width:958px;height:376px;background:#FFFFFF;" version="1.1" viewBox="0 0 958 376" width="958px" zoomAndPan="magnify"><defs/><g><!--entity webpack--><g class="entity" data-entity="webpack" data-source-line="7" data-uid="ent0002" id="entity_webpack"><path d="M8.5,209 L91.0283,209 A3.75,3.75 0 0 1 93.5283,211.5 L100.5283,231.2969 L115.0283,231.2969 A2.5,2.5 0 0 1 117.5283,233.7969 L117.5283,278.3906 A2.5,2.5 0 0 1 115.0283,280.8906 L8.5,280.8906 A2.5,2.5 0 0 1 6,278.3906 L6,211.5 A2.5,2.5 0 0 1 8.5,209" fill="#F1F1F1" style="stroke:#181818;stroke-width:0.5;"/><line style="stroke:#181818;stroke-width:0.5;" x1="6" x2="100.5283" y1="231.2969" y2="231.2969"/><text fill="#000000" font-family="Arial" font-size="14" font-weight="bold" lengthAdjust="spacing" textLength="69.5283" x="16" y="224.9951">webpack</text><text fill="#000000" font-family="Arial" font-size="14" lengthAdjust="spacing" textLength="62.2207" x="16" y="251.292">webpack</text><text fill="#000000" font-family="Arial" font-size="14" lengthAdjust="spacing" textLength="44.5293" x="24.8457" y="267.5889">5.88.0</text></g><!--entity types_eslint_scope--><g class="entity" data-entity="types_eslint_scope" data-source-line="8" data-uid="ent0003" id="entity_types_eslint_scope"><path d="M225.03,120 L385.5495,120 A3.75,3.75 0 0 1 388.0495,122.5 L395.0495,142.2969 L409.5495,142.2969 A2.5,2.5 0 0 1 412.0495,144.7969 L412.0495,189.3906 A2.5,2.5 0 0 1 409.5495,191.8906 L225.03,191.8906 A2.5,2.5 0 0 1 222.53,189.3906 L222.53,122.5 A2.5,2.5 0 0 1 225.03,120" fill="#F1F1F1" style="stroke:#181818;stroke-width:0.5;"/><line style="stroke:#181818;stroke-width:0.5;" x1="222.53" x2="395.0495" y1="142.2969" y2="142.2969"/><text fill="#000000" font-family="Arial" font-size="14" font-weight="bold" lengthAdjust="spacing" textLength="147.5195" x="232.53" y="135.9951">types_eslint_scope</text><text fill="#000000" font-family="Arial" font-size="14" lengthAdjust="spacing" textLength="141.4424" x="232.53" y="162.292">@types/eslint-scope</text><text fill="#000000" font-family="Arial" font-size="14" lengthAdjust="spacing" textLength="35.6221" x="285.4402" y="178.5889">3.7.3</text></g><!--entity types_eslint--><g class="entity" data-entity="types_eslint" data-source-line="9" data-uid="ent0004" id="entity_types_eslint"><path d="M519.55,33 L627.3029,33 A3.75,3.75 0 0 1 629.8029,35.5 L636.8029,55.2969 L651.3029,55.2969 A2.5,2.5 0 0 1 653.8029,57.7969 L653.8029,102.3906 A2.5,2.5 0 0 1 651.3029,104.8906 L519.55,104.8906 A2.5,2.5 0 0 1 517.05,102.3906 L517.05,35.5 A2.5,2.5 0 0 1 519.55,33" fill="#F1F1F1" style="stroke:#181818;stroke-width:0.5;"/><line style="stroke:#181818;stroke-width:0.5;" x1="517.05" x2="636.8029" y1="55.2969" y2="55.2969"/><text fill="#000000" font-family="Arial" font-size="14" font-weight="bold" lengthAdjust="spacing" textLength="94.7529" x="527.05" y="48.9951">types_eslint</text><text fill="#000000" font-family="Arial" font-size="14" lengthAdjust="spacing" textLength="95.334" x="527.05" y="75.292">@types/eslint</text><text fill="#000000" font-family="Arial" font-size="14" lengthAdjust="spacing" textLength="35.6221" x="556.906" y="91.5889">8.0.0</text></g><!--entity types_estree--><g class="entity" data-entity="types_estree" data-source-line="10" data-uid="ent0005" id="entity_types_estree"><path d="M786.02,121 L900.103,121 A3.75,3.75 0 0 1 902.603,123.5 L909.603,143.2969 L924.103,143.2969 A2.5,2.5 0 0 1 926.603,145.7969 L926.603,190.3906 A2.5,2.5 0 0 1 924.103,192.8906 L786.02,192.8906 A2.5,2.5 0 0 1 783.52,190.3906 L783.52,123.5 A2.5,2.5 0 0 1 786.02,121" fill="#F1F1F1" style="stroke:#181818;stroke-width:0.5;"/><line style="stroke:#181818;stroke-width:0.5;" x1="783.52" x2="909.603" y1="143.2969" y2="143.2969"/><text fill="#000000" font-family="Arial" font-size="14" font-weight="bold" lengthAdjust="spacing" textLength="101.083" x="793.52" y="136.9951">types_estree</text><text fill="#000000" font-family="Arial" font-size="14" lengthAdjust="spacing" textLength="101.6641" x="793.52" y="163.292">@types/estree</text><text fill="#000000" font-family="Arial" font-size="14" lengthAdjust="spacing" textLength="35.6221" x="826.541" y="179.5889">1.0.0</text></g><!--entity types_json_schema--><g class="entity" data-entity="types_json_schema" data-source-line="11" data-uid="ent0006" id="entity_types_json_schema"><path d="M761.3,6 L924.8137,6 A3.75,3.75 0 0 1 927.3137,8.5 L934.3137,28.2969 L948.8137,28.2969 A2.5,2.5 0 0 1 951.3137,30.7969 L951.3137,75.3906 A2.5,2.5 0 0 1 948.8137,77.8906 L761.3,77.8906 A2.5,2.5 0 0 1 758.8,75.3906 L758.8,8.5 A2.5,2.5 0 0 1 761.3,6" fill="#F1F1F1" style="stroke:#181818;stroke-width:0.5;"/><line style="stroke:#181818;stroke-width:0.5;" x1="758.8" x2="934.3137" y1="28.2969" y2="28.2969"/><text fill="#000000" font-family="Arial" font-size="14" font-weight="bold" lengthAdjust="spacing" textLength="150.5137" x="768.8" y="21.9951">types_json_schema</text><text fill="#000000" font-family="Arial" font-size="14" lengthAdjust="spacing" textLength="145.6533" x="768.8" y="48.292">@types/json-schema</text><text fill="#000000" font-family="Arial" font-size="14" lengthAdjust="spacing" textLength="35.6221" x="823.8156" y="64.5889">7.0.0</text></g><!--entity acorn--><g class="entity" data-entity="acorn" data-source-line="12" data-uid="ent0007" id="entity_acorn"><path d="M276.67,298 L333.9054,298 A3.75,3.75 0 0 1 336.4054,300.5 L343.4054,320.2969 L357.9054,320.2969 A2.5,2.5 0 0 1 360.4054,322.7969 L360.4054,367.3906 A2.5,2.5 0 0 1 357.9054,369.8906 L276.67,369.8906 A2.5,2.5 0 0 1 274.17,367.3906 L274.17,300.5 A2.5,2.5 0 0 1 276.67,298" fill="#F1F1F1" style="stroke:#181818;stroke-width:0.5;"/><line style="stroke:#181818;stroke-width:0.5;" x1="274.17" x2="343.4054" y1="320.2969" y2="320.2969"/><text fill="#000000" font-family="Arial" font-size="14" font-weight="bold" lengthAdjust="spacing" textLength="44.2354" x="284.17" y="313.9951">acorn</text><text fill="#000000" font-family="Arial" font-size="14" lengthAdjust="spacing" textLength="39.4707" x="284.17" y="340.292">acorn</text><text fill="#000000" font-family="Arial" font-size="14" lengthAdjust="spacing" textLength="35.6221" x="286.0943" y="356.5889">8.8.0</text></g><!--link webpack to types_eslint_scope--><g class="link" data-entity-1="webpack" data-entity-2="types_eslint_scope" data-source-line="14" data-uid="lnk8" id="link_webpack_types_eslint_scope"><path d="M117.78,247.9269 C148.28,237.2169 181.3987,203.2974 216.5787,190.9474" fill="none" id="webpack-to-types_eslint_scope" style="stroke:#181818;stroke-width:1;"/><polygon fill="#181818" points="222.24,188.96,212.4231,188.1669,217.5223,190.6162,215.073,195.7153,222.24,188.96" style="stroke:#181818;stroke-width:1;"/><text fill="#000000" font-family="Arial" font-size="13" lengthAdjust="spacing" textLength="43.9702" x="148.53" y="196.0069">^3.7.3</text></g><!--link webpack to types_estree--><g class="link" data-entity-1="webpack" data-entity-2="types_estree" data-source-line="15" data-uid="lnk9" id="link_webpack_types_estree"><path d="M117.84,239.52 C186.69,232.67 308.13,220.41 412.05,208.94 C543.19,194.47 690.0736,176.8923 777.3236,166.3123" fill="none" id="webpack-to-types_estree" style="stroke:#181818;stroke-width:1;"/><polygon fill="#181818" points="783.28,165.59,773.8639,162.7025,778.3164,166.1919,774.827,170.6443,783.28,165.59" style="stroke:#181818;stroke-width:1;"/><text fill="#000000" font-family="Arial" font-size="13" lengthAdjust="spacing" textLength="43.9702" x="443.05" y="196.0069">^1.0.0</text></g><!--link webpack to acorn--><g class="link" data-entity-1="webpack" data-entity-2="acorn" data-source-line="16" data-uid="lnk10" id="link_webpack_acorn"><path d="M117.65,274.82 C127.45,279.56 137.67,284.15 147.53,287.94 C189.47,304.1 233.4731,315.6032 268.0731,323.5732" fill="none" id="webpack-to-acorn" style="stroke:#181818;stroke-width:1;"/><polygon fill="#181818" points="273.92,324.92,266.0475,319.0019,269.0476,323.7977,264.2518,326.7977,273.92,324.92" style="stroke:#181818;stroke-width:1;"/><text fill="#000000" font-family="Arial" font-size="13" lengthAdjust="spacing" textLength="43.9702" x="148.53" y="284.0069">^8.8.0</text></g><!--link types_eslint_scope to types_eslint--><g class="link" data-entity-1="types_eslint_scope" data-entity-2="types_eslint" data-source-line="17" data-uid="lnk11" id="link_types_eslint_scope_types_eslint"><path d="M412.49,147.4469 C446.88,136.2069 479.3668,103.2838 511.0068,92.9438" fill="none" id="types_eslint_scope-to-types_eslint" style="stroke:#181818;stroke-width:1;"/><polygon fill="#181818" points="516.71,91.08,506.9127,90.0736,511.9574,92.6332,509.3978,97.6778,516.71,91.08" style="stroke:#181818;stroke-width:1;"/><text fill="#000000" font-family="Arial" font-size="13" lengthAdjust="spacing" textLength="43.9702" x="443.05" y="99.0069">^8.0.0</text></g><!--link types_eslint_scope to types_estree--><g class="link" data-entity-1="types_eslint_scope" data-entity-2="types_estree" data-source-line="18" data-uid="lnk12" id="link_types_eslint_scope_types_estree"><path d="M412.53,156.12 C518.37,156.32 681.76,156.6187 777.02,156.7987" fill="none" id="types_eslint_scope-to-types_estree" style="stroke:#181818;stroke-width:1;"/><polygon fill="#181818" points="783.02,156.81,774.0276,152.793,778.02,156.8006,774.0125,160.793,783.02,156.81" style="stroke:#181818;stroke-width:1;"/><text fill="#000000" font-family="Arial" font-size="13" lengthAdjust="spacing" textLength="43.9702" x="563.92" y="152.0069">^1.0.0</text></g><!--link types_eslint to types_estree--><g class="link" data-entity-1="types_eslint" data-entity-2="types_estree" data-source-line="19" data-uid="lnk13" id="link_types_eslint_types_estree"><path d="M653.96,91.15 C693.45,104.13 737.5401,118.6361 777.5701,131.7961" fill="none" id="types_eslint-to-types_estree" style="stroke:#181818;stroke-width:1;"/><polygon fill="#181818" points="783.27,133.67,775.9694,127.0593,778.5201,132.1085,773.4709,134.6591,783.27,133.67" style="stroke:#181818;stroke-width:1;"/><text fill="#000000" font-family="Arial" font-size="13" lengthAdjust="spacing" textLength="43.9702" x="684.8" y="99.0069">^1.0.0</text></g><!--link types_eslint to types_json_schema--><g class="link" data-entity-1="types_eslint" data-entity-2="types_json_schema" data-source-line="20" data-uid="lnk14" id="link_types_eslint_types_json_schema"><path d="M653.96,62.13 C685.63,58.94 717.9502,55.671 752.5202,52.191" fill="none" id="types_eslint-to-types_json_schema" style="stroke:#181818;stroke-width:1;"/><polygon fill="#181818" points="758.49,51.59,749.1346,48.5115,753.5151,52.0908,749.9359,56.4713,758.49,51.59" style="stroke:#181818;stroke-width:1;"/><text fill="#000000" font-family="Arial" font-size="13" lengthAdjust="spacing" textLength="43.9702" x="684.8" y="51.0069">^7.0.0</text></g><!--SRC=[bP0nJyCm48Lt_ufJzuIY2hLYGB0mih16H4ToITmwvyY-gkg_9tO2JTeWn6RT-zwzT_O7pHqwRA6rR8l6sPP0t96K_r5yWwKzQQwXGkEdIaaL7esyMfOtx8qlJgEPw1qM1wpfNSw6m54Xob0b81QShXk1KeUXjgpKYCBgH9_XdV53kjkbwnMWXt5sWPxbt96_8syqI-8Bsr76ctIRRY8VrNnGywZ-OisuZnX3fgO5N1pr6VStU9ZVu7jlkQ_LK8iPRwyyGSm7yMB4mZeETRvlZWEbnjCXIPuMpe97-8XdBtAXMY1YwHaHbmSfvgc5nTTv0xp-6vw7pbRy6vlyL63ZHtu1]--></g></svg>